<svg width="220" height="94" viewBox="0 0 220 94" fill="none" xmlns="http://www.w3.org/2000/svg">
<g clip-path="url(#clip0_1_68)">
<path d="M75.2742 32.1807C67.059 32.1807 60.3989 38.8405 60.3989 47.0558C60.3989 55.2713 67.059 61.9307 75.2742 61.9307C83.4903 61.9307 90.1497 55.2713 90.1497 47.0558C90.1497 38.8411 83.4903 32.1814 75.274 32.1814L75.2742 32.1807ZM82.0959 53.6348C81.8295 54.0718 81.2575 54.2103 80.8205 53.9421C77.328 51.8088 72.9313 51.3256 67.7533 52.5086C67.2544 52.6223 66.757 52.3097 66.6433 51.8106C66.5291 51.3114 66.8405 50.814 67.3407 50.7004C73.0071 49.4058 77.8676 49.9632 81.7886 52.3594C82.2256 52.6276 82.3641 53.1978 82.0959 53.6348ZM83.9166 49.5845C83.5809 50.1302 82.8668 50.3025 82.3215 49.9668C78.323 47.5091 72.228 46.7973 67.4986 48.2329C66.8853 48.4182 66.2375 48.0725 66.0513 47.4602C65.8666 46.8469 66.2124 46.2003 66.8247 46.0138C72.227 44.3746 78.943 45.1686 83.5347 47.9903C84.08 48.326 84.2523 49.0401 83.9166 49.5847V49.5845ZM84.0729 45.3668C79.2787 42.5193 71.3688 42.2574 66.7915 43.6467C66.0564 43.8696 65.2791 43.4547 65.0564 42.7196C64.8336 41.9842 65.2482 41.2075 65.9838 40.984C71.2383 39.3889 79.9732 39.6971 85.4929 42.9738C86.1555 43.3662 86.3722 44.2201 85.9796 44.8803C85.5888 45.5415 84.7327 45.7594 84.0736 45.3668H84.0729ZM100.87 45.9125C98.3011 45.3001 97.8446 44.8702 97.8446 43.9669C97.8446 43.1136 98.6475 42.5393 99.8429 42.5393C101.001 42.5393 102.149 42.9754 103.353 43.8732C103.388 43.9003 103.435 43.9112 103.479 43.9041C103.525 43.8973 103.564 43.8726 103.591 43.8355L104.845 42.0677C104.897 41.9949 104.882 41.8945 104.813 41.8389C103.38 40.6891 101.767 40.1301 99.8802 40.1301C97.1074 40.1301 95.1695 41.7944 95.1695 44.1755C95.1695 46.7289 96.841 47.633 99.7293 48.331C102.186 48.8971 102.602 49.3713 102.602 50.219C102.602 51.1586 101.763 51.7431 100.413 51.7431C98.9139 51.7431 97.6901 51.2368 96.3223 50.0538C96.2886 50.0236 96.2424 50.0112 96.1997 50.0129C96.1536 50.0165 96.1127 50.0378 96.0843 50.0716L94.6774 51.7448C94.6188 51.8159 94.6259 51.9189 94.6934 51.9793C96.285 53.4003 98.2425 54.1499 100.356 54.1499C103.344 54.1499 105.275 52.5175 105.275 49.9898C105.28 47.857 104.003 46.6758 100.875 45.9148L100.87 45.9125ZM112.035 43.3795C110.741 43.3795 109.678 43.8897 108.801 44.935V43.7584C108.801 43.6655 108.726 43.5898 108.634 43.5898H106.334C106.241 43.5898 106.167 43.6655 106.167 43.7584V56.8322C106.167 56.9245 106.241 57.0009 106.334 57.0009H108.634C108.726 57.0009 108.801 56.9245 108.801 56.8322V52.7058C109.678 53.6881 110.741 54.1695 112.035 54.1695C114.442 54.1695 116.879 52.3168 116.879 48.775C116.883 45.2326 114.446 43.3793 112.037 43.3793L112.035 43.3795ZM114.204 48.775C114.204 50.5778 113.094 51.8372 111.503 51.8372C109.931 51.8372 108.744 50.521 108.744 48.775C108.744 47.0289 109.931 45.713 111.503 45.713C113.068 45.7129 114.204 47.0003 114.204 48.7749V48.775ZM123.123 43.3795C120.023 43.3795 117.595 45.7662 117.595 48.8136C117.595 51.8283 120.008 54.189 123.086 54.189C126.196 54.189 128.631 51.8106 128.631 48.775C128.631 45.7498 126.212 43.3799 123.123 43.3799V43.3795ZM123.123 51.855C121.475 51.855 120.231 50.5298 120.231 48.7741C120.231 47.0105 121.432 45.7306 123.086 45.7306C124.745 45.7306 125.995 47.0552 125.995 48.8127C125.995 50.576 124.788 51.855 123.123 51.855ZM135.25 43.5898H132.719V41.0025C132.719 40.9098 132.644 40.8341 132.552 40.8341H130.251C130.159 40.8341 130.083 40.9098 130.083 41.0025V43.5898H128.978C128.885 43.5898 128.811 43.6655 128.811 43.7584V45.7349C128.811 45.8276 128.885 45.9035 128.978 45.9035H130.083V51.0183C130.083 53.0842 131.111 54.1322 133.141 54.1322C133.966 54.1322 134.65 53.9616 135.294 53.5957C135.348 53.5673 135.38 53.5105 135.38 53.4501V51.5672C135.38 51.5104 135.349 51.4553 135.3 51.4251C135.25 51.3931 135.188 51.3913 135.136 51.418C134.694 51.64 134.266 51.7431 133.786 51.7431C133.049 51.7431 132.719 51.4073 132.719 50.6577V45.9044H135.25C135.342 45.9044 135.417 45.8287 135.417 45.7358V43.7595C135.42 43.6666 135.346 43.5909 135.252 43.5909L135.25 43.5898ZM144.068 43.6V43.2822C144.068 42.3473 144.426 41.9304 145.229 41.9304C145.709 41.9304 146.094 42.0256 146.526 42.1695C146.579 42.1862 146.634 42.1779 146.677 42.1461C146.721 42.1143 146.746 42.0633 146.746 42.0093V40.0713C146.746 39.9973 146.7 39.9317 146.627 39.9099C146.172 39.7743 145.59 39.6353 144.716 39.6353C142.593 39.6353 141.469 40.8314 141.469 43.0932V43.5799H140.364C140.272 43.5799 140.195 43.6556 140.195 43.7483V45.7349C140.195 45.8276 140.272 45.9035 140.364 45.9035H141.469V53.7911C141.469 53.8853 141.545 53.9599 141.638 53.9599H143.936C144.03 53.9599 144.105 53.8853 144.105 53.7911V45.904H146.252L149.542 53.7911C149.169 54.6189 148.801 54.7841 148.3 54.7841C147.895 54.7841 147.467 54.6633 147.032 54.4235C146.991 54.4022 146.942 54.3986 146.899 54.4111C146.855 54.427 146.817 54.459 146.799 54.5016L146.02 56.2122C145.982 56.2939 146.014 56.3881 146.092 56.4307C146.906 56.8712 147.64 57.0595 148.547 57.0595C150.245 57.0595 151.185 56.2673 152.011 54.1393L156.001 43.8302C156.022 43.7783 156.015 43.7197 155.983 43.6737C155.953 43.628 155.901 43.6005 155.846 43.6005H153.452C153.379 43.6005 153.315 43.6461 153.292 43.7135L150.839 50.7181L148.153 43.7088C148.128 43.6437 148.066 43.6005 147.997 43.6005H144.068V43.6ZM138.955 43.5898H136.655C136.563 43.5898 136.486 43.6655 136.486 43.7584V53.7911C136.486 53.8853 136.563 53.9599 136.655 53.9599H138.955C139.048 53.9599 139.124 53.8853 139.124 53.7911V43.7591C139.124 43.6662 139.049 43.5905 138.955 43.5905V43.5898ZM137.818 39.0214C136.907 39.0214 136.168 39.7589 136.168 40.67C136.168 41.5816 136.907 42.32 137.818 42.32C138.73 42.32 139.467 41.5816 139.467 40.67C139.467 39.7591 138.728 39.0214 137.818 39.0214ZM157.965 46.8158C157.056 46.8158 156.347 46.0848 156.347 45.1972C156.347 44.3096 157.065 43.5703 157.974 43.5703C158.884 43.5703 159.592 44.3011 159.592 45.188C159.592 46.0756 158.875 46.8158 157.965 46.8158ZM157.974 43.7312C157.145 43.7312 156.518 44.3902 156.518 45.1972C156.518 46.0038 157.141 46.654 157.965 46.654C158.795 46.654 159.422 45.9955 159.422 45.188C159.422 44.3814 158.798 43.7312 157.974 43.7312ZM158.333 45.3544L158.791 45.9953H158.404L157.992 45.4073H157.638V45.9953H157.315V44.2964H158.072C158.468 44.2964 158.727 44.4984 158.727 44.8384C158.729 45.1169 158.567 45.2871 158.335 45.3544H158.333ZM158.059 44.5879H157.638V45.1253H158.059C158.269 45.1253 158.395 45.0224 158.395 44.8563C158.395 44.6816 158.269 44.5879 158.059 44.5879Z" fill="#4C4C4D"/>
</g>
<defs>
<clipPath id="clip0_1_68">
<rect width="99.1667" height="34" fill="white" transform="translate(60.3453 30)"/>
</clipPath>
</defs>
</svg>
