<svg width="220" height="94" viewBox="0 0 220 94" fill="none" xmlns="http://www.w3.org/2000/svg">
<g clip-path="url(#clip0_1_64)">
<path d="M75.6437 55.0714L82.6239 44.2099H76.4706C76.4184 43.897 76.3961 43.5544 76.3961 43.1744C76.3961 42.8094 76.4184 42.4742 76.4706 42.1688H86.4306L86.5573 42.504L79.5249 53.3878H86.1177C86.1699 53.7305 86.1922 54.088 86.1922 54.4456C86.1922 54.7883 86.1699 55.1161 86.1177 55.4289H75.7703L75.6437 55.0714Z" fill="#4C4C4D"/>
<path d="M95.7873 46.6908C95.7873 45.6702 95.5266 44.9699 95.0125 44.5677C94.4985 44.1728 93.7461 43.9717 92.7628 43.9717C92.1594 43.9717 91.5932 44.0164 91.0717 44.1132C90.5428 44.2101 90.0362 44.3293 89.5297 44.4857C89.2019 43.9195 89.038 43.2342 89.038 42.4445C89.6265 42.2583 90.2672 42.1093 90.9749 42.005C91.6826 41.9007 92.3605 41.8486 93.0161 41.8486C94.7369 41.8486 96.048 42.2434 96.9494 43.0256C97.8434 43.8078 98.2978 45.0668 98.2978 46.7876V55.0864C97.6944 55.2205 96.9643 55.3695 96.1002 55.511C95.236 55.66 94.357 55.7271 93.463 55.7271C92.6212 55.7271 91.8539 55.6526 91.176 55.4961C90.4981 55.3397 89.9171 55.0939 89.4403 54.7437C88.9635 54.4011 88.5985 53.9615 88.3378 53.4252C88.077 52.8888 87.9504 52.2407 87.9504 51.4883C87.9504 50.7508 88.0994 50.0952 88.4048 49.5365C88.7028 48.9778 89.1125 48.5085 89.634 48.1434C90.148 47.771 90.744 47.4953 91.4219 47.3165C92.0923 47.1377 92.8 47.0409 93.545 47.0409C94.0963 47.0409 94.5507 47.0558 94.9008 47.0781C95.2509 47.1005 95.5489 47.1377 95.7948 47.1675V46.6908H95.7873ZM95.7873 49.2013C95.5266 49.164 95.1988 49.1342 94.804 49.097C94.4091 49.0597 94.0739 49.0448 93.7983 49.0448C92.7255 49.0448 91.9135 49.246 91.3548 49.6408C90.7961 50.0356 90.513 50.639 90.513 51.451C90.513 51.9651 90.6099 52.3748 90.7961 52.6653C90.9823 52.9558 91.2207 53.1793 91.5038 53.3358C91.7869 53.4922 92.0998 53.5891 92.4499 53.6189C92.7926 53.6561 93.1204 53.671 93.4332 53.671C93.8281 53.671 94.2378 53.6487 94.6624 53.604C95.087 53.5593 95.4595 53.4997 95.7873 53.4103V49.2013Z" fill="#4C4C4D"/>
<path d="M101.091 42.1693C101.263 42.1321 101.441 42.1097 101.62 42.0948C101.799 42.0799 101.985 42.0725 102.179 42.0725C102.35 42.0725 102.529 42.0799 102.723 42.0948C102.909 42.1097 103.095 42.1395 103.267 42.1693C103.281 42.2066 103.304 42.3109 103.334 42.4896C103.356 42.6684 103.386 42.8621 103.408 43.0707C103.43 43.2793 103.46 43.473 103.483 43.6667C103.505 43.8604 103.52 43.9796 103.52 44.0317C103.691 43.7561 103.9 43.4879 104.138 43.2272C104.377 42.9664 104.667 42.7355 105.002 42.5269C105.338 42.3183 105.717 42.1544 106.142 42.0352C106.567 41.916 107.036 41.8564 107.55 41.8564C108.325 41.8564 109.047 41.9831 109.71 42.2438C110.373 42.5045 110.94 42.8994 111.416 43.4432C111.893 43.987 112.258 44.6798 112.526 45.5142C112.795 46.3485 112.929 47.3393 112.929 48.4791C112.929 50.7586 112.31 52.5391 111.081 53.8204C109.845 55.1017 108.101 55.7498 105.844 55.7498C105.464 55.7498 105.077 55.7275 104.682 55.6754C104.287 55.6232 103.937 55.5562 103.647 55.4668V61.5456C103.438 61.5828 103.222 61.6052 102.984 61.6201C102.753 61.635 102.537 61.6424 102.35 61.6424C102.164 61.6424 101.948 61.635 101.717 61.6201C101.486 61.6052 101.27 61.5754 101.084 61.5456V42.1693H101.091ZM103.654 53.2617C103.982 53.3809 104.317 53.4703 104.66 53.5224C105.002 53.5746 105.449 53.5969 106.008 53.5969C106.626 53.5969 107.2 53.5001 107.714 53.2989C108.228 53.0978 108.675 52.7924 109.047 52.3826C109.42 51.9655 109.71 51.444 109.926 50.8182C110.143 50.1925 110.247 49.4401 110.247 48.5834C110.247 47.2052 109.994 46.1101 109.487 45.2981C108.98 44.4861 108.146 44.0838 106.991 44.0838C106.559 44.0838 106.15 44.1583 105.747 44.3148C105.352 44.4712 104.995 44.7022 104.689 45.015C104.377 45.3279 104.131 45.7153 103.937 46.1921C103.743 46.6688 103.654 47.2276 103.654 47.8831V53.2617Z" fill="#4C4C4D"/>
<path d="M116.117 44.1801H114.433C114.396 44.0386 114.374 43.8821 114.359 43.7034C114.344 43.5246 114.337 43.3458 114.337 43.1744C114.337 43.0031 114.344 42.8243 114.359 42.6455C114.374 42.4667 114.404 42.3028 114.433 42.1688H118.628V55.4364C118.441 55.4736 118.225 55.496 117.994 55.5109C117.763 55.5258 117.547 55.5332 117.361 55.5332C117.19 55.5332 116.989 55.5258 116.75 55.5109C116.519 55.496 116.303 55.4662 116.117 55.4364V44.1801Z" fill="#4C4C4D"/>
<path d="M124.133 49.4324C124.17 50.8776 124.542 51.9429 125.258 52.6134C125.973 53.2838 127.031 53.619 128.424 53.619C129.645 53.619 130.815 53.403 131.918 52.9709C132.059 53.2317 132.171 53.5445 132.253 53.917C132.342 54.2895 132.387 54.6545 132.409 55.0196C131.843 55.2579 131.217 55.4442 130.532 55.5634C129.854 55.6826 129.094 55.7422 128.267 55.7422C127.06 55.7422 126.025 55.5708 125.161 55.2356C124.297 54.9004 123.589 54.4236 123.03 53.8127C122.471 53.2019 122.062 52.4793 121.801 51.6375C121.54 50.8031 121.414 49.8868 121.414 48.8811C121.414 47.8978 121.54 46.9815 121.786 46.1248C122.032 45.2681 122.419 44.5306 122.933 43.8974C123.447 43.2716 124.103 42.765 124.885 42.4C125.667 42.0275 126.599 41.8413 127.664 41.8413C128.58 41.8413 129.377 41.9977 130.07 42.3106C130.763 42.6235 131.336 43.0481 131.806 43.5919C132.268 44.1358 132.625 44.7839 132.864 45.5288C133.102 46.2812 133.229 47.0932 133.229 47.9723C133.229 48.2107 133.221 48.4714 133.199 48.7321C133.184 49.0003 133.162 49.2313 133.147 49.4175H124.133V49.4324ZM130.703 47.5179C130.703 47.0336 130.636 46.5718 130.51 46.1322C130.383 45.6927 130.189 45.3128 129.943 44.985C129.69 44.6572 129.377 44.3965 128.99 44.1954C128.602 43.9942 128.141 43.8974 127.604 43.8974C126.554 43.8974 125.749 44.2177 125.183 44.8509C124.624 45.4916 124.282 46.3781 124.163 47.5179H130.703Z" fill="#4C4C4D"/>
<path d="M136.06 42.1688C136.246 42.1315 136.432 42.1092 136.603 42.0943C136.775 42.0794 136.953 42.0719 137.147 42.0719C137.333 42.0719 137.527 42.0794 137.713 42.0943C137.9 42.1092 138.078 42.139 138.227 42.1688C138.279 42.4295 138.332 42.7647 138.384 43.1893C138.436 43.614 138.458 43.9715 138.458 44.2621C138.823 43.6736 139.3 43.167 139.896 42.7349C140.492 42.3028 141.252 42.0868 142.183 42.0868C142.325 42.0868 142.466 42.0943 142.608 42.1017C142.757 42.1092 142.876 42.1241 142.98 42.139C143.017 42.2954 143.04 42.4593 143.055 42.6306C143.07 42.802 143.077 42.9808 143.077 43.1744C143.077 43.383 143.062 43.5991 143.04 43.8226C143.017 44.046 142.98 44.2621 142.95 44.4707C142.809 44.4334 142.667 44.4185 142.526 44.4185C142.377 44.4185 142.265 44.4185 142.176 44.4185C141.714 44.4185 141.267 44.4856 140.842 44.6122C140.417 44.7388 140.038 44.9698 139.702 45.2976C139.367 45.6253 139.099 46.0723 138.898 46.6459C138.697 47.2121 138.6 47.9496 138.6 48.8436V55.4364C138.414 55.4736 138.198 55.496 137.967 55.5109C137.736 55.5258 137.52 55.5332 137.333 55.5332C137.147 55.5332 136.931 55.5258 136.7 55.5109C136.469 55.496 136.246 55.4662 136.037 55.4364V42.1688H136.06Z" fill="#4C4C4D"/>
<path d="M121.063 34.3619H118.56L120.333 32.5889C120.192 32.3952 120.035 32.209 119.872 32.0377C119.7 31.8663 119.521 31.7099 119.32 31.5758L117.547 33.3488V30.8457C117.316 30.8085 117.078 30.7861 116.832 30.7861H116.825C116.579 30.7861 116.34 30.8085 116.109 30.8457V33.3488L114.336 31.5758C114.143 31.7173 113.957 31.8738 113.785 32.0377C113.614 32.209 113.465 32.3878 113.323 32.5889L115.104 34.3619H112.601C112.601 34.3619 112.541 34.8312 112.541 35.0771C112.541 35.3229 112.564 35.5613 112.601 35.7922H115.104L113.331 37.5652C113.606 37.9526 113.949 38.2953 114.344 38.5784L116.117 36.8054V39.3084C116.348 39.3457 116.586 39.368 116.832 39.368H116.84C117.085 39.368 117.324 39.3457 117.555 39.3084V36.8054L119.328 38.5784C119.521 38.4368 119.708 38.2804 119.879 38.1165C120.05 37.9451 120.207 37.7664 120.341 37.5652L118.568 35.7922H121.071C121.108 35.5613 121.13 35.3229 121.13 35.0771V35.0696C121.123 34.8312 121.108 34.5929 121.063 34.3619ZM117.905 35.0845C117.905 35.4049 117.845 35.7103 117.741 35.9934C117.458 36.0977 117.152 36.1573 116.832 36.1573C116.512 36.1573 116.206 36.0977 115.923 35.9934C115.819 35.7103 115.759 35.4049 115.759 35.0845V35.0771C115.759 34.7567 115.819 34.4513 115.923 34.1682C116.206 34.0639 116.512 34.0043 116.832 34.0043C117.152 34.0043 117.458 34.0639 117.741 34.1682C117.845 34.4513 117.905 34.7567 117.905 35.0845Z" fill="#4C4C4D"/>
</g>
<defs>
<clipPath id="clip0_1_64">
<rect width="68" height="34" fill="white" transform="translate(75.6428 30)"/>
</clipPath>
</defs>
</svg>
