<svg width="220" height="94" viewBox="0 0 220 94" fill="none" xmlns="http://www.w3.org/2000/svg">
<g clip-path="url(#clip0_1_92)">
<path d="M96.2136 54.6319V44.3221H96.3973L103.902 54.6319H106.263V39.4918H103.639V49.7756H103.456L95.9512 39.4918H93.5896V54.6319H96.2136ZM113.689 54.8656C117.153 54.8656 119.278 52.6323 119.278 48.8927C119.278 45.1791 117.153 42.9197 113.689 42.9197C110.252 42.9197 108.1 45.1791 108.1 48.8927C108.126 52.6323 110.226 54.8656 113.689 54.8656ZM113.689 52.6842C111.852 52.6842 110.803 51.3078 110.803 48.8927C110.803 46.5035 111.852 45.1011 113.689 45.1011C115.526 45.1011 116.576 46.5035 116.576 48.8927C116.576 51.3078 115.526 52.6842 113.689 52.6842ZM121.666 40.3488V43.2314H119.829V45.3089H121.666V51.5675C121.666 53.8009 122.716 54.6838 125.392 54.6838C125.891 54.6838 126.389 54.6319 126.783 54.554V52.5284C126.468 52.5544 126.258 52.5803 125.891 52.5803C124.789 52.5803 124.29 52.0869 124.29 50.9443V45.3089H126.783V43.2314H124.29V40.3488H121.666ZM128.357 54.6319H130.981V43.1534H128.357V54.6319ZM129.669 41.2577C130.535 41.2577 131.244 40.5565 131.244 39.6995C131.244 38.8166 130.535 38.1154 129.669 38.1154C128.803 38.1154 128.095 38.8166 128.095 39.6995C128.095 40.5565 128.803 41.2577 129.669 41.2577ZM138.171 54.8656C141.635 54.8656 143.76 52.6323 143.76 48.8927C143.76 45.1791 141.635 42.9197 138.171 42.9197C134.733 42.9197 132.582 45.1791 132.582 48.8927C132.582 52.6323 134.681 54.8656 138.171 54.8656ZM138.171 52.6842C136.334 52.6842 135.285 51.3078 135.285 48.8927C135.285 46.5035 136.334 45.1011 138.171 45.1011C139.981 45.1011 141.057 46.5035 141.057 48.8927C141.031 51.3078 139.981 52.6842 138.171 52.6842ZM145.308 54.6319H147.932V47.9578C147.932 46.2698 148.929 45.205 150.477 45.205C152.078 45.205 152.813 46.088 152.813 47.8279V54.6319H155.437V47.2047C155.437 44.4519 154.02 42.9197 151.448 42.9197C149.716 42.9197 148.562 43.6988 148.011 44.9973H147.827V43.1534H145.282C145.308 43.1534 145.308 54.6319 145.308 54.6319Z" fill="#4C4C4D"/>
<path fill-rule="evenodd" clip-rule="evenodd" d="M68.4303 38.5227C69.194 39.1388 69.4702 39.0902 70.9001 38.9929L84.3707 38.1823C84.6632 38.1823 84.4194 37.8904 84.3219 37.858L82.0795 36.2529C81.6571 35.9286 81.0721 35.5395 79.9834 35.6368L66.9516 36.5933C66.4804 36.642 66.3829 36.8852 66.5779 37.0635L68.4303 38.5227ZM69.2427 41.6519V55.79C69.2427 56.552 69.6164 56.8276 70.4776 56.779L85.2806 55.9197C86.1418 55.871 86.2393 55.3522 86.2393 54.7361V40.6953C86.2393 40.0792 85.9956 39.7387 85.4756 39.7874L70.0064 40.6953C69.4377 40.744 69.2427 41.0358 69.2427 41.6519ZM83.8507 42.4139C83.9482 42.8355 83.8507 43.2732 83.4282 43.3219L82.7133 43.4678V53.9092C82.0958 54.2335 81.5271 54.428 81.0396 54.428C80.2759 54.428 80.0809 54.1848 79.5122 53.4715L74.8487 46.1592V53.2283L76.3273 53.5525C76.3273 53.5525 76.3273 54.4118 75.1412 54.4118L71.8588 54.6064C71.7613 54.4118 71.8588 53.9416 72.1838 53.8444L73.045 53.6012V44.2623L71.8588 44.165C71.7613 43.7434 72.0051 43.1273 72.6713 43.0787L76.1973 42.8355L81.0558 50.2288V43.6948L79.8209 43.5489C79.7234 43.0301 80.1134 42.6409 80.5846 42.5923L83.8507 42.4139ZM65.8629 35.2963L79.4309 34.3073C81.0883 34.1613 81.5271 34.2586 82.567 35.0207L86.8893 38.0525C87.6043 38.5714 87.848 38.7173 87.848 39.2848V55.9359C87.848 56.9735 87.4743 57.5896 86.1418 57.6869L70.3964 58.6435C69.389 58.6922 68.9177 58.5462 68.3978 57.8815L65.1967 53.7471C64.628 52.9851 64.3842 52.4176 64.3842 51.7528V36.95C64.3842 36.0907 64.7742 35.3936 65.8629 35.2963Z" fill="#4C4C4D"/>
</g>
<defs>
<clipPath id="clip0_1_92">
<rect width="91.375" height="34" fill="white" transform="translate(64.384 30)"/>
</clipPath>
</defs>
</svg>
